<svg id="icons" xmlns="http://www.w3.org/2000/svg" viewBox="0 0 104 104"><defs><style>.cls-3{fill:#162837}</style><linearGradient id="Dégradé_sans_nom_13" x1="29.92" y1="34.02" x2="74.07" y2="78.17" gradientUnits="userSpaceOnUse"><stop offset="0" stop-color="#f0b90b"/><stop offset=".28" stop-color="#f1bc0f"/><stop offset=".57" stop-color="#f4c41c"/><stop offset=".86" stop-color="#f8d230"/><stop offset=".99" stop-color="#fbda3c"/></linearGradient></defs><path d="M0 0v104h104V0z" fill="none"/><path d="M75.5 68.05V44.14h5.26A8.27 8.27 0 0 1 89 52.41v7.37a8.27 8.27 0 0 1-8.27 8.27zM23.22 44.14A8.27 8.27 0 0 0 15 52.41v7.37a8.27 8.27 0 0 0 8.27 8.27h5.23V44.14zm22.52 44.93A6.27 6.27 0 1 0 52 82.8a6.26 6.26 0 0 0-6.26 6.27z" fill="url(#Dégradé_sans_nom_13)"/><path class="cls-3" d="M28.5 41.14h-7.75v-1l1.94-1.5h5.81v2.5zm47 0h7.75v-1l-1.94-1.5H75.5v2.5z"/><path class="cls-3" d="M52 14.19a26 26 0 0 0-26 26h2.5a23.5 23.5 0 0 1 47 0H78a26 26 0 0 0-26-26z"/><path class="cls-3" d="M52 8.94a31.25 31.25 0 0 0-31.25 31.2h2.5a28.75 28.75 0 0 1 57.5 0h2.5A31.25 31.25 0 0 0 52 8.94z"/><path d="M31.14 19.33l2.96 2.96m39.12-3.38l-3.83 3.84" stroke="#162837" stroke-miterlimit="10" stroke-width="2.5" fill="none"/><path class="cls-3" d="M61 72.38a12.76 12.76 0 0 1-17.91 0l-1.74 1.74a15.21 15.21 0 0 0 21.44 0z"/><path class="cls-3" d="M62.73 74.14a15.21 15.21 0 0 1-21.44 0L43 72.38a12.76 12.76 0 0 0 17.91 0zm-20.6 15.64a26.21 26.21 0 0 1-2.44-1l1.08-2.25c.72.34 1.46.66 2.21.93zm-5.21-2.58c-.74-.48-1.46-1-2.15-1.55l1.56-2a23 23 0 0 0 1.94 1.39zm-4.42-3.56c-.61-.63-1.2-1.29-1.75-2l2-1.56c.5.62 1 1.22 1.59 1.79zM29 79.17a26.1 26.1 0 0 1-1.27-2.32L30 75.76a21.4 21.4 0 0 0 1.15 2.1zm-2.37-5.01c-.28-.83-.52-1.69-.72-2.55l2.44-.55a23.12 23.12 0 0 0 .65 2.3z"/></svg>