<svg id="icons" xmlns="http://www.w3.org/2000/svg" viewBox="0 0 104 104"><defs><style>.cls-1{fill:#162837}</style><linearGradient id="Dégradé_sans_nom_11" x1="28.19" y1="86.87" x2="54.57" y2="60.49" gradientUnits="userSpaceOnUse"><stop offset="0" stop-color="#f0b90b"/><stop offset=".26" stop-color="#f1bd10"/><stop offset=".59" stop-color="#f5c720"/><stop offset=".96" stop-color="#fad839"/><stop offset=".99" stop-color="#fbda3c"/></linearGradient></defs><path class="cls-1" d="M8.55 32.53h2.5v45.24h-2.5zm36.38.02h27.15v2.5H44.93zM30.14 46.28h26.71v2.5H30.14zm0 5.47h26.71v2.5H30.14zm0 5.47h20.51v2.5H30.14z"/><path class="cls-1" d="M30.14 51.73h26.71v2.5H30.14zm30.01-5.45h26.71v2.5H60.15zm0 5.47h26.71v2.5H60.15zm0 5.47h26.71v2.5H60.15zm0 5.52h26.71v2.5H60.15zm0 13.78h26.71v2.5H60.15zm0-8.27H69v2.5h-8.85z"/><path class="cls-1" d="M60.15 51.73h26.71v2.5H60.15zM49.78 27.08h17.43v2.5H49.78zM16.52 77.77H14v-2.5h2.5zm0-5.5H14v-2.5h2.5zm0-5.5H14v-2.5h2.5zm0-5.5H14v-2.5h2.5zm0-5.5H14v-2.5h2.5zm0-5.5H14v-2.5h2.5zm0-5.5H14v-2.5h2.5zm0-5.5H14v-2.5h2.5zm0-5.5H14v-2.5h2.5zm0-5.5H14v-2.5h2.5z"/><path d="M56.82 62.74v15a6.73 6.73 0 0 1-6.72 6.72H25.81V82A4.23 4.23 0 0 0 30 77.77v-15z" fill="url(#Dégradé_sans_nom_11)"/><path class="cls-1" d="M90.79 84.5H15.27a6.72 6.72 0 0 1-6.72-6.72h2.5a4.22 4.22 0 0 0 8.44 0V19.52h78v58.25A6.74 6.74 0 0 1 92 84.38v.11zM20.49 82h70.3A4.22 4.22 0 0 0 95 77.77V22H22v55.77A6.67 6.67 0 0 1 20.49 82z"/><path fill="none" d="M0 0h104v104H0z"/></svg>