<svg xmlns="http://www.w3.org/2000/svg" viewBox="0 0 104 104"><defs><linearGradient id="a" x1="31.03" y1="82.36" x2="72.98" y2="40.41" gradientUnits="userSpaceOnUse"><stop offset="0" stop-color="#f0b90b"/><stop offset=".26" stop-color="#f1bd10"/><stop offset=".59" stop-color="#f5c720"/><stop offset=".96" stop-color="#fad839"/><stop offset=".99" stop-color="#fbda3c"/></linearGradient></defs><path fill="none" d="M0 0h104v104H0z"/><path d="M23.82 37.83a7.67 7.67 0 1 1-7.67 7.68 7.69 7.69 0 0 1 7.67-7.68m0-2.73a10.4 10.4 0 1 0 10.41 10.41A10.41 10.41 0 0 0 23.82 35.1zm56.37 2.73a7.67 7.67 0 1 1-7.67 7.68 7.69 7.69 0 0 1 7.67-7.68m0-2.73A10.4 10.4 0 1 0 90.6 45.51 10.41 10.41 0 0 0 80.19 35.1zm9.23 24.39h-10.6a14.05 14.05 0 0 1 1.71 2.73h8.89a5.34 5.34 0 0 1 5.34 5.34v2.09H81.88v2.72h15.61v-4.81a8.08 8.08 0 0 0-8.07-8.07zM6.51 67.56v4.81h15.61v-2.72H9.24v-2.09a5.34 5.34 0 0 1 5.34-5.34h8.89a14 14 0 0 1 1.7-2.73H14.58a8.09 8.09 0 0 0-8.07 8.07z" fill="#212833"/><path d="M52 25.27a14.07 14.07 0 1 0 14.07 14.07A14.07 14.07 0 0 0 52 25.27zm26.61 43v8.47H25.39v-8.48a10.91 10.91 0 0 1 10.9-10.9h8.16L52 64.92l7.55-7.56h8.16a10.91 10.91 0 0 1 10.9 10.9z" fill="url(#a)"/></svg>